<svg width="330" height="330" viewBox="0 0 330 330" fill="none" xmlns="http://www.w3.org/2000/svg">
<circle cx="16.5" cy="16.5" r="10" stroke="#EFEFEF"/>
<line y1="16.5" x2="33" y2="16.5" stroke="#EFEFEF"/>
<line x1="16.5" y1="2.18557e-08" x2="16.5" y2="33" stroke="#EFEFEF"/>
<circle cx="49.5" cy="16.5" r="10" stroke="#EFEFEF"/>
<line x1="33" y1="16.5" x2="66" y2="16.5" stroke="#EFEFEF"/>
<line x1="49.5" y1="2.18557e-08" x2="49.5" y2="33" stroke="#EFEFEF"/>
<circle cx="82.5" cy="16.5" r="10" stroke="#EFEFEF"/>
<line x1="66" y1="16.5" x2="99" y2="16.5" stroke="#EFEFEF"/>
<line x1="82.5" y1="2.18557e-08" x2="82.5" y2="33" stroke="#EFEFEF"/>
<circle cx="115.5" cy="16.5" r="10" stroke="#EFEFEF"/>
<line x1="99" y1="16.5" x2="132" y2="16.5" stroke="#EFEFEF"/>
<line x1="115.5" y1="2.18557e-08" x2="115.5" y2="33" stroke="#EFEFEF"/>
<circle cx="148.5" cy="16.5" r="10" stroke="#EFEFEF"/>
<line x1="132" y1="16.5" x2="165" y2="16.5" stroke="#EFEFEF"/>
<line x1="148.5" y1="2.18557e-08" x2="148.5" y2="33" stroke="#EFEFEF"/>
<circle cx="181.5" cy="16.5" r="10" stroke="#EFEFEF"/>
<line x1="165" y1="16.5" x2="198" y2="16.5" stroke="#EFEFEF"/>
<line x1="181.5" y1="2.18557e-08" x2="181.5" y2="33" stroke="#EFEFEF"/>
<circle cx="214.5" cy="16.5" r="10" stroke="#EFEFEF"/>
<line x1="198" y1="16.5" x2="231" y2="16.5" stroke="#EFEFEF"/>
<line x1="214.5" y1="2.18557e-08" x2="214.5" y2="33" stroke="#EFEFEF"/>
<circle cx="247.5" cy="16.5" r="10" stroke="#EFEFEF"/>
<line x1="231" y1="16.5" x2="264" y2="16.5" stroke="#EFEFEF"/>
<line x1="247.5" y1="2.18557e-08" x2="247.5" y2="33" stroke="#EFEFEF"/>
<circle cx="280.5" cy="16.5" r="10" stroke="#EFEFEF"/>
<line x1="264" y1="16.5" x2="297" y2="16.5" stroke="#EFEFEF"/>
<line x1="280.5" y1="2.18557e-08" x2="280.5" y2="33" stroke="#EFEFEF"/>
<line x1="297" y1="16.5" x2="330" y2="16.5" stroke="#EFEFEF"/>
<line x1="313.5" y1="2.18557e-08" x2="313.5" y2="33" stroke="#EFEFEF"/>
<circle cx="313.5" cy="16.5" r="10" stroke="#BFBFBF"/>
<circle cx="16.5" cy="49.5" r="10" stroke="#EFEFEF"/>
<line y1="49.5" x2="33" y2="49.5" stroke="#EFEFEF"/>
<line x1="16.5" y1="33" x2="16.5" y2="66" stroke="#EFEFEF"/>
<circle cx="49.5" cy="49.5" r="10" stroke="#EFEFEF"/>
<line x1="33" y1="49.5" x2="66" y2="49.5" stroke="#EFEFEF"/>
<line x1="49.5" y1="33" x2="49.5" y2="66" stroke="#EFEFEF"/>
<circle cx="82.5" cy="49.5" r="10" stroke="#EFEFEF"/>
<line x1="66" y1="49.5" x2="99" y2="49.5" stroke="#EFEFEF"/>
<line x1="82.5" y1="33" x2="82.5" y2="66" stroke="#EFEFEF"/>
<circle cx="115.5" cy="49.5" r="10" stroke="#EFEFEF"/>
<line x1="99" y1="49.5" x2="132" y2="49.5" stroke="#EFEFEF"/>
<line x1="115.5" y1="33" x2="115.5" y2="66" stroke="#EFEFEF"/>
<circle cx="148.5" cy="49.5" r="10" stroke="#EFEFEF"/>
<line x1="132" y1="49.5" x2="165" y2="49.5" stroke="#EFEFEF"/>
<line x1="148.5" y1="33" x2="148.5" y2="66" stroke="#EFEFEF"/>
<circle cx="181.5" cy="49.5" r="10" stroke="#EFEFEF"/>
<line x1="165" y1="49.5" x2="198" y2="49.5" stroke="#EFEFEF"/>
<line x1="181.5" y1="33" x2="181.5" y2="66" stroke="#EFEFEF"/>
<circle cx="214.5" cy="49.5" r="10" stroke="#EFEFEF"/>
<line x1="198" y1="49.5" x2="231" y2="49.5" stroke="#EFEFEF"/>
<line x1="214.5" y1="33" x2="214.5" y2="66" stroke="#EFEFEF"/>
<circle cx="247.5" cy="49.5" r="10" stroke="#EFEFEF"/>
<line x1="231" y1="49.5" x2="264" y2="49.5" stroke="#EFEFEF"/>
<line x1="247.5" y1="33" x2="247.5" y2="66" stroke="#EFEFEF"/>
<circle cx="280.5" cy="49.5" r="10" stroke="#EFEFEF"/>
<line x1="264" y1="49.5" x2="297" y2="49.5" stroke="#EFEFEF"/>
<line x1="280.5" y1="33" x2="280.5" y2="66" stroke="#EFEFEF"/>
<circle cx="313.5" cy="49.5" r="10" stroke="#EFEFEF"/>
<line x1="297" y1="49.5" x2="330" y2="49.5" stroke="#EFEFEF"/>
<line x1="313.5" y1="33" x2="313.5" y2="66" stroke="#EFEFEF"/>
<circle cx="16.5" cy="82.5" r="10" stroke="#EFEFEF"/>
<line y1="82.5" x2="33" y2="82.5" stroke="#EFEFEF"/>
<line x1="16.5" y1="66" x2="16.5" y2="99" stroke="#EFEFEF"/>
<line x1="33" y1="82.5" x2="66" y2="82.5" stroke="#EFEFEF"/>
<line x1="49.5" y1="66" x2="49.5" y2="99" stroke="#EFEFEF"/>
<circle cx="49.5" cy="82.5" r="10" stroke="#D1D1D1"/>
<circle cx="82.5" cy="82.5" r="10" stroke="#EFEFEF"/>
<line x1="66" y1="82.5" x2="99" y2="82.5" stroke="#EFEFEF"/>
<line x1="82.5" y1="66" x2="82.5" y2="99" stroke="#EFEFEF"/>
<circle cx="115.5" cy="82.5" r="10" stroke="#EFEFEF"/>
<line x1="99" y1="82.5" x2="132" y2="82.5" stroke="#EFEFEF"/>
<line x1="115.5" y1="66" x2="115.5" y2="99" stroke="#EFEFEF"/>
<circle cx="148.5" cy="82.5" r="10" stroke="#EFEFEF"/>
<line x1="132" y1="82.5" x2="165" y2="82.5" stroke="#EFEFEF"/>
<line x1="148.5" y1="66" x2="148.5" y2="99" stroke="#EFEFEF"/>
<circle cx="181.5" cy="82.5" r="10" stroke="#EFEFEF"/>
<line x1="165" y1="82.5" x2="198" y2="82.5" stroke="#EFEFEF"/>
<line x1="181.5" y1="66" x2="181.5" y2="99" stroke="#EFEFEF"/>
<circle cx="214.5" cy="82.5" r="10" stroke="#EFEFEF"/>
<line x1="198" y1="82.5" x2="231" y2="82.5" stroke="#EFEFEF"/>
<line x1="214.5" y1="66" x2="214.5" y2="99" stroke="#EFEFEF"/>
<circle cx="247.5" cy="82.5" r="10" stroke="#EFEFEF"/>
<line x1="231" y1="82.5" x2="264" y2="82.5" stroke="#EFEFEF"/>
<line x1="247.5" y1="66" x2="247.5" y2="99" stroke="#EFEFEF"/>
<circle cx="280.5" cy="82.5" r="10" stroke="#EFEFEF"/>
<line x1="264" y1="82.5" x2="297" y2="82.5" stroke="#EFEFEF"/>
<line x1="280.5" y1="66" x2="280.5" y2="99" stroke="#EFEFEF"/>
<circle cx="313.5" cy="82.5" r="10" stroke="#EFEFEF"/>
<line x1="297" y1="82.5" x2="330" y2="82.5" stroke="#EFEFEF"/>
<line x1="313.5" y1="66" x2="313.5" y2="99" stroke="#EFEFEF"/>
<circle cx="16.5" cy="115.5" r="10" stroke="#EFEFEF"/>
<line y1="115.5" x2="33" y2="115.5" stroke="#EFEFEF"/>
<line x1="16.5" y1="99" x2="16.5" y2="132" stroke="#EFEFEF"/>
<circle cx="49.5" cy="115.5" r="10" stroke="#EFEFEF"/>
<line x1="33" y1="115.5" x2="66" y2="115.5" stroke="#EFEFEF"/>
<line x1="49.5" y1="99" x2="49.5" y2="132" stroke="#EFEFEF"/>
<circle cx="82.5" cy="115.5" r="10" stroke="#EFEFEF"/>
<line x1="66" y1="115.5" x2="99" y2="115.5" stroke="#EFEFEF"/>
<line x1="82.5" y1="99" x2="82.5" y2="132" stroke="#EFEFEF"/>
<circle cx="115.5" cy="115.5" r="10" stroke="#EFEFEF"/>
<line x1="99" y1="115.5" x2="132" y2="115.5" stroke="#EFEFEF"/>
<line x1="115.5" y1="99" x2="115.5" y2="132" stroke="#EFEFEF"/>
<line x1="132" y1="115.5" x2="165" y2="115.5" stroke="#EFEFEF"/>
<line x1="148.5" y1="99" x2="148.5" y2="132" stroke="#EFEFEF"/>
<circle cx="148.5" cy="115.5" r="10" stroke="#D4D4D4"/>
<circle cx="181.5" cy="115.5" r="10" stroke="#EFEFEF"/>
<line x1="165" y1="115.5" x2="198" y2="115.5" stroke="#EFEFEF"/>
<line x1="181.5" y1="99" x2="181.5" y2="132" stroke="#EFEFEF"/>
<circle cx="214.5" cy="115.5" r="10" stroke="#EFEFEF"/>
<line x1="198" y1="115.5" x2="231" y2="115.5" stroke="#EFEFEF"/>
<line x1="214.5" y1="99" x2="214.5" y2="132" stroke="#EFEFEF"/>
<circle cx="247.5" cy="115.5" r="10" stroke="#EFEFEF"/>
<line x1="231" y1="115.5" x2="264" y2="115.5" stroke="#EFEFEF"/>
<line x1="247.5" y1="99" x2="247.5" y2="132" stroke="#EFEFEF"/>
<circle cx="280.5" cy="115.5" r="10" stroke="#EFEFEF"/>
<line x1="264" y1="115.5" x2="297" y2="115.5" stroke="#EFEFEF"/>
<line x1="280.5" y1="99" x2="280.5" y2="132" stroke="#EFEFEF"/>
<circle cx="313.5" cy="115.5" r="10" stroke="#EFEFEF"/>
<line x1="297" y1="115.5" x2="330" y2="115.5" stroke="#EFEFEF"/>
<line x1="313.5" y1="99" x2="313.5" y2="132" stroke="#EFEFEF"/>
<circle cx="16.5" cy="148.5" r="10" stroke="#EFEFEF"/>
<line y1="148.5" x2="33" y2="148.5" stroke="#EFEFEF"/>
<line x1="16.5" y1="132" x2="16.5" y2="165" stroke="#EFEFEF"/>
<circle cx="49.5" cy="148.5" r="10" stroke="#EFEFEF"/>
<line x1="33" y1="148.5" x2="66" y2="148.5" stroke="#EFEFEF"/>
<line x1="49.5" y1="132" x2="49.5" y2="165" stroke="#EFEFEF"/>
<circle cx="82.5" cy="148.5" r="10" stroke="#EFEFEF"/>
<line x1="66" y1="148.5" x2="99" y2="148.5" stroke="#EFEFEF"/>
<line x1="82.5" y1="132" x2="82.5" y2="165" stroke="#EFEFEF"/>
<circle cx="115.5" cy="148.5" r="10" stroke="#EFEFEF"/>
<line x1="99" y1="148.5" x2="132" y2="148.5" stroke="#EFEFEF"/>
<line x1="115.5" y1="132" x2="115.5" y2="165" stroke="#EFEFEF"/>
<circle cx="148.5" cy="148.5" r="10" stroke="#EFEFEF"/>
<line x1="132" y1="148.5" x2="165" y2="148.5" stroke="#EFEFEF"/>
<line x1="148.5" y1="132" x2="148.5" y2="165" stroke="#EFEFEF"/>
<circle cx="181.5" cy="148.5" r="10" stroke="#EFEFEF"/>
<line x1="165" y1="148.5" x2="198" y2="148.5" stroke="#EFEFEF"/>
<line x1="181.5" y1="132" x2="181.5" y2="165" stroke="#EFEFEF"/>
<circle cx="214.5" cy="148.5" r="10" stroke="#EFEFEF"/>
<line x1="198" y1="148.5" x2="231" y2="148.5" stroke="#EFEFEF"/>
<line x1="214.5" y1="132" x2="214.5" y2="165" stroke="#EFEFEF"/>
<circle cx="247.5" cy="148.5" r="10" stroke="#EFEFEF"/>
<line x1="231" y1="148.5" x2="264" y2="148.5" stroke="#EFEFEF"/>
<line x1="247.5" y1="132" x2="247.5" y2="165" stroke="#EFEFEF"/>
<circle cx="280.5" cy="148.5" r="10" stroke="#EFEFEF"/>
<line x1="264" y1="148.5" x2="297" y2="148.5" stroke="#EFEFEF"/>
<line x1="280.5" y1="132" x2="280.5" y2="165" stroke="#EFEFEF"/>
<circle cx="313.5" cy="148.5" r="10" stroke="#EFEFEF"/>
<line x1="297" y1="148.5" x2="330" y2="148.5" stroke="#EFEFEF"/>
<line x1="313.5" y1="132" x2="313.5" y2="165" stroke="#EFEFEF"/>
<circle cx="16.5" cy="181.5" r="10" stroke="#EFEFEF"/>
<line y1="181.5" x2="33" y2="181.5" stroke="#EFEFEF"/>
<line x1="16.5" y1="165" x2="16.5" y2="198" stroke="#EFEFEF"/>
<circle cx="49.5" cy="181.5" r="10" stroke="#EFEFEF"/>
<line x1="33" y1="181.5" x2="66" y2="181.5" stroke="#EFEFEF"/>
<line x1="49.5" y1="165" x2="49.5" y2="198" stroke="#EFEFEF"/>
<circle cx="82.5" cy="181.5" r="10" stroke="#EFEFEF"/>
<line x1="66" y1="181.5" x2="99" y2="181.5" stroke="#EFEFEF"/>
<line x1="82.5" y1="165" x2="82.5" y2="198" stroke="#EFEFEF"/>
<circle cx="115.5" cy="181.5" r="10" stroke="#EFEFEF"/>
<line x1="99" y1="181.5" x2="132" y2="181.5" stroke="#EFEFEF"/>
<line x1="115.5" y1="165" x2="115.5" y2="198" stroke="#EFEFEF"/>
<circle cx="148.5" cy="181.5" r="10" stroke="#EFEFEF"/>
<line x1="132" y1="181.5" x2="165" y2="181.5" stroke="#EFEFEF"/>
<line x1="148.5" y1="165" x2="148.5" y2="198" stroke="#EFEFEF"/>
<circle cx="181.5" cy="181.5" r="10" stroke="#EFEFEF"/>
<line x1="165" y1="181.5" x2="198" y2="181.5" stroke="#EFEFEF"/>
<line x1="181.5" y1="165" x2="181.5" y2="198" stroke="#EFEFEF"/>
<circle cx="214.5" cy="181.5" r="10" stroke="#EFEFEF"/>
<line x1="198" y1="181.5" x2="231" y2="181.5" stroke="#EFEFEF"/>
<line x1="214.5" y1="165" x2="214.5" y2="198" stroke="#EFEFEF"/>
<line x1="231" y1="181.5" x2="264" y2="181.5" stroke="#EFEFEF"/>
<line x1="247.5" y1="165" x2="247.5" y2="198" stroke="#EFEFEF"/>
<circle cx="247.5" cy="181.5" r="10" stroke="#C1C1C1"/>
<circle cx="280.5" cy="181.5" r="10" stroke="#EFEFEF"/>
<line x1="264" y1="181.5" x2="297" y2="181.5" stroke="#EFEFEF"/>
<line x1="280.5" y1="165" x2="280.5" y2="198" stroke="#EFEFEF"/>
<circle cx="313.5" cy="181.5" r="10" stroke="#EFEFEF"/>
<line x1="297" y1="181.5" x2="330" y2="181.5" stroke="#EFEFEF"/>
<line x1="313.5" y1="165" x2="313.5" y2="198" stroke="#EFEFEF"/>
<circle cx="16.5" cy="214.5" r="10" stroke="#EFEFEF"/>
<line y1="214.5" x2="33" y2="214.5" stroke="#EFEFEF"/>
<line x1="16.5" y1="198" x2="16.5" y2="231" stroke="#EFEFEF"/>
<circle cx="49.5" cy="214.5" r="10" stroke="#EFEFEF"/>
<line x1="33" y1="214.5" x2="66" y2="214.5" stroke="#EFEFEF"/>
<line x1="49.5" y1="198" x2="49.5" y2="231" stroke="#EFEFEF"/>
<circle cx="82.5" cy="214.5" r="10" stroke="#EFEFEF"/>
<line x1="66" y1="214.5" x2="99" y2="214.5" stroke="#EFEFEF"/>
<line x1="82.5" y1="198" x2="82.5" y2="231" stroke="#EFEFEF"/>
<circle cx="115.5" cy="214.5" r="10" stroke="#EFEFEF"/>
<line x1="99" y1="214.5" x2="132" y2="214.5" stroke="#EFEFEF"/>
<line x1="115.5" y1="198" x2="115.5" y2="231" stroke="#EFEFEF"/>
<circle cx="148.5" cy="214.5" r="10" stroke="#EFEFEF"/>
<line x1="132" y1="214.5" x2="165" y2="214.5" stroke="#EFEFEF"/>
<line x1="148.5" y1="198" x2="148.5" y2="231" stroke="#EFEFEF"/>
<circle cx="181.5" cy="214.5" r="10" stroke="#EFEFEF"/>
<line x1="165" y1="214.5" x2="198" y2="214.5" stroke="#EFEFEF"/>
<line x1="181.5" y1="198" x2="181.5" y2="231" stroke="#EFEFEF"/>
<circle cx="214.5" cy="214.5" r="10" stroke="#EFEFEF"/>
<line x1="198" y1="214.5" x2="231" y2="214.5" stroke="#EFEFEF"/>
<line x1="214.5" y1="198" x2="214.5" y2="231" stroke="#EFEFEF"/>
<circle cx="247.5" cy="214.5" r="10" stroke="#EFEFEF"/>
<line x1="231" y1="214.5" x2="264" y2="214.5" stroke="#EFEFEF"/>
<line x1="247.5" y1="198" x2="247.5" y2="231" stroke="#EFEFEF"/>
<circle cx="280.5" cy="214.5" r="10" stroke="#EFEFEF"/>
<line x1="264" y1="214.5" x2="297" y2="214.5" stroke="#EFEFEF"/>
<line x1="280.5" y1="198" x2="280.5" y2="231" stroke="#EFEFEF"/>
<circle cx="313.5" cy="214.5" r="10" stroke="#EFEFEF"/>
<line x1="297" y1="214.5" x2="330" y2="214.5" stroke="#EFEFEF"/>
<line x1="313.5" y1="198" x2="313.5" y2="231" stroke="#EFEFEF"/>
<circle cx="16.5" cy="247.5" r="10" stroke="#EFEFEF"/>
<line y1="247.5" x2="33" y2="247.5" stroke="#EFEFEF"/>
<line x1="16.5" y1="231" x2="16.5" y2="264" stroke="#EFEFEF"/>
<circle cx="49.5" cy="247.5" r="10" stroke="#EFEFEF"/>
<line x1="33" y1="247.5" x2="66" y2="247.5" stroke="#EFEFEF"/>
<line x1="49.5" y1="231" x2="49.5" y2="264" stroke="#EFEFEF"/>
<circle cx="82.5" cy="247.5" r="10" stroke="#EFEFEF"/>
<line x1="66" y1="247.5" x2="99" y2="247.5" stroke="#EFEFEF"/>
<line x1="82.5" y1="231" x2="82.5" y2="264" stroke="#EFEFEF"/>
<line x1="99" y1="247.5" x2="132" y2="247.5" stroke="#EFEFEF"/>
<line x1="115.5" y1="231" x2="115.5" y2="264" stroke="#EFEFEF"/>
<circle cx="115.5" cy="247.5" r="10" stroke="#BDBDBD"/>
<circle cx="148.5" cy="247.5" r="10" stroke="#EFEFEF"/>
<line x1="132" y1="247.5" x2="165" y2="247.5" stroke="#EFEFEF"/>
<line x1="148.5" y1="231" x2="148.5" y2="264" stroke="#EFEFEF"/>
<circle cx="181.5" cy="247.5" r="10" stroke="#EFEFEF"/>
<line x1="165" y1="247.5" x2="198" y2="247.5" stroke="#EFEFEF"/>
<line x1="181.5" y1="231" x2="181.5" y2="264" stroke="#EFEFEF"/>
<circle cx="214.5" cy="247.5" r="10" stroke="#EFEFEF"/>
<line x1="198" y1="247.5" x2="231" y2="247.5" stroke="#EFEFEF"/>
<line x1="214.5" y1="231" x2="214.5" y2="264" stroke="#EFEFEF"/>
<circle cx="247.5" cy="247.5" r="10" stroke="#EFEFEF"/>
<line x1="231" y1="247.5" x2="264" y2="247.5" stroke="#EFEFEF"/>
<line x1="247.5" y1="231" x2="247.5" y2="264" stroke="#EFEFEF"/>
<line x1="264" y1="247.5" x2="297" y2="247.5" stroke="#EFEFEF"/>
<line x1="280.5" y1="231" x2="280.5" y2="264" stroke="#EFEFEF"/>
<circle cx="280.5" cy="247.5" r="10" stroke="#7C7C7C"/>
<circle cx="313.5" cy="247.5" r="10" stroke="#EFEFEF"/>
<line x1="297" y1="247.5" x2="330" y2="247.5" stroke="#EFEFEF"/>
<line x1="313.5" y1="231" x2="313.5" y2="264" stroke="#EFEFEF"/>
<line y1="280.5" x2="33" y2="280.5" stroke="#EFEFEF"/>
<line x1="16.5" y1="264" x2="16.5" y2="297" stroke="#EFEFEF"/>
<circle cx="16.5" cy="280.5" r="10" stroke="#D2D2D2"/>
<circle cx="49.5" cy="280.5" r="10" stroke="#EFEFEF"/>
<line x1="33" y1="280.5" x2="66" y2="280.5" stroke="#EFEFEF"/>
<line x1="49.5" y1="264" x2="49.5" y2="297" stroke="#EFEFEF"/>
<circle cx="82.5" cy="280.5" r="10" stroke="#EFEFEF"/>
<line x1="66" y1="280.5" x2="99" y2="280.5" stroke="#EFEFEF"/>
<line x1="82.5" y1="264" x2="82.5" y2="297" stroke="#EFEFEF"/>
<circle cx="115.5" cy="280.5" r="10" stroke="#EFEFEF"/>
<line x1="99" y1="280.5" x2="132" y2="280.5" stroke="#EFEFEF"/>
<line x1="115.5" y1="264" x2="115.5" y2="297" stroke="#EFEFEF"/>
<circle cx="148.5" cy="280.5" r="10" stroke="#EFEFEF"/>
<line x1="132" y1="280.5" x2="165" y2="280.5" stroke="#EFEFEF"/>
<line x1="148.5" y1="264" x2="148.5" y2="297" stroke="#EFEFEF"/>
<circle cx="181.5" cy="280.5" r="10" stroke="#EFEFEF"/>
<line x1="165" y1="280.5" x2="198" y2="280.5" stroke="#EFEFEF"/>
<line x1="181.5" y1="264" x2="181.5" y2="297" stroke="#EFEFEF"/>
<circle cx="214.5" cy="280.5" r="10" stroke="#EFEFEF"/>
<line x1="198" y1="280.5" x2="231" y2="280.5" stroke="#EFEFEF"/>
<line x1="214.5" y1="264" x2="214.5" y2="297" stroke="#EFEFEF"/>
<circle cx="247.5" cy="280.5" r="10" stroke="#EFEFEF"/>
<line x1="231" y1="280.5" x2="264" y2="280.5" stroke="#EFEFEF"/>
<line x1="247.5" y1="264" x2="247.5" y2="297" stroke="#EFEFEF"/>
<circle cx="280.5" cy="280.5" r="10" stroke="#EFEFEF"/>
<line x1="264" y1="280.5" x2="297" y2="280.5" stroke="#EFEFEF"/>
<line x1="280.5" y1="264" x2="280.5" y2="297" stroke="#EFEFEF"/>
<circle cx="313.5" cy="280.5" r="10" stroke="#EFEFEF"/>
<line x1="297" y1="280.5" x2="330" y2="280.5" stroke="#EFEFEF"/>
<line x1="313.5" y1="264" x2="313.5" y2="297" stroke="#EFEFEF"/>
<circle cx="16.5" cy="313.5" r="10" stroke="#EFEFEF"/>
<line y1="313.5" x2="33" y2="313.5" stroke="#EFEFEF"/>
<line x1="16.5" y1="297" x2="16.5" y2="330" stroke="#EFEFEF"/>
<circle cx="49.5" cy="313.5" r="10" stroke="#EFEFEF"/>
<line x1="33" y1="313.5" x2="66" y2="313.5" stroke="#EFEFEF"/>
<line x1="49.5" y1="297" x2="49.5" y2="330" stroke="#EFEFEF"/>
<circle cx="82.5" cy="313.5" r="10" stroke="#EFEFEF"/>
<line x1="66" y1="313.5" x2="99" y2="313.5" stroke="#EFEFEF"/>
<line x1="82.5" y1="297" x2="82.5" y2="330" stroke="#EFEFEF"/>
<circle cx="115.5" cy="313.5" r="10" stroke="#EFEFEF"/>
<line x1="99" y1="313.5" x2="132" y2="313.5" stroke="#EFEFEF"/>
<line x1="115.5" y1="297" x2="115.5" y2="330" stroke="#EFEFEF"/>
<circle cx="148.5" cy="313.5" r="10" stroke="#EFEFEF"/>
<line x1="132" y1="313.5" x2="165" y2="313.5" stroke="#EFEFEF"/>
<line x1="148.5" y1="297" x2="148.5" y2="330" stroke="#EFEFEF"/>
<circle cx="181.5" cy="313.5" r="10" stroke="#EFEFEF"/>
<line x1="165" y1="313.5" x2="198" y2="313.5" stroke="#EFEFEF"/>
<line x1="181.5" y1="297" x2="181.5" y2="330" stroke="#EFEFEF"/>
<circle cx="214.5" cy="313.5" r="10" stroke="#EFEFEF"/>
<line x1="198" y1="313.5" x2="231" y2="313.5" stroke="#EFEFEF"/>
<line x1="214.5" y1="297" x2="214.5" y2="330" stroke="#EFEFEF"/>
<circle cx="247.5" cy="313.5" r="10" stroke="#EFEFEF"/>
<line x1="231" y1="313.5" x2="264" y2="313.5" stroke="#EFEFEF"/>
<line x1="247.5" y1="297" x2="247.5" y2="330" stroke="#EFEFEF"/>
<circle cx="280.5" cy="313.5" r="10" stroke="#EFEFEF"/>
<line x1="264" y1="313.5" x2="297" y2="313.5" stroke="#EFEFEF"/>
<line x1="280.5" y1="297" x2="280.5" y2="330" stroke="#EFEFEF"/>
<circle cx="313.5" cy="313.5" r="10" stroke="#EFEFEF"/>
<line x1="297" y1="313.5" x2="330" y2="313.5" stroke="#EFEFEF"/>
<line x1="313.5" y1="297" x2="313.5" y2="330" stroke="#EFEFEF"/>
</svg>
