<svg xmlns="http://www.w3.org/2000/svg" version="1.1" xmlns:xlink="http://www.w3.org/1999/xlink" xmlns:svgjs="http://svgjs.com/svgjs" width="22" height="24"><svg width="22" height="24" viewBox="0 0 22 24" fill="none" xmlns="http://www.w3.org/2000/svg">
<path d="M21.3872 12.7567C21.3872 18.6277 16.6278 23.3872 10.7567 23.3872C4.88558 23.3872 0.126114 18.6277 0.126114 12.7567C0.126114 6.88556 4.88558 2.1261 10.7567 2.1261C16.6278 2.1261 21.3872 6.88556 21.3872 12.7567Z" fill="#D9D9D9"></path>
<path d="M15.0089 19.135C15.0089 20.3092 14.057 21.2611 12.8828 21.2611C11.7086 21.2611 10.7567 20.3092 10.7567 19.135C10.7567 17.9608 11.7086 17.0089 12.8828 17.0089C14.057 17.0089 15.0089 17.9608 15.0089 19.135Z" fill="black"></path>
<path fill-rule="evenodd" clip-rule="evenodd" d="M16.2888 1.25871C14.6153 0.452062 12.7388 0 10.7567 0C7.45715 0 4.45022 1.25268 2.1855 3.30839L3.43147 5.05274C5.3382 3.23917 7.91745 2.12611 10.7567 2.12611C12.5654 2.12611 14.2687 2.57785 15.7598 3.37467L16.2888 1.25871Z" fill="#1E1E1E"></path>
</svg><style>@media (prefers-color-scheme: light) { :root { filter: none; } }
</style></svg>