<svg width="31" height="29" viewBox="0 0 31 29" fill="none" xmlns="http://www.w3.org/2000/svg">
<path fill-rule="evenodd" clip-rule="evenodd" d="M15.7629 8.6539C15.3503 8.6914 14.9855 8.38739 14.948 7.97488L14.3201 1.0679C14.2826 0.655392 14.5866 0.290584 14.9992 0.253083C15.4117 0.215582 15.7765 0.519589 15.814 0.932101L16.4419 7.83908C16.4794 8.25159 16.1754 8.6164 15.7629 8.6539Z" fill="black"/>
<path fill-rule="evenodd" clip-rule="evenodd" d="M11.1261 13.2406C10.9409 13.6111 10.4904 13.7613 10.1199 13.5761L1.32919 9.18071C0.958708 8.99547 0.80854 8.54496 0.993782 8.17448C1.17902 7.80399 1.62953 7.65383 2.00001 7.83907L10.7907 12.2344C11.1612 12.4197 11.3114 12.8702 11.1261 13.2406Z" fill="black"/>
<path fill-rule="evenodd" clip-rule="evenodd" d="M11.8514 20.3972C12.1443 20.6901 12.1443 21.165 11.8514 21.4579L8.08393 25.2253C7.79103 25.5182 7.31616 25.5182 7.02327 25.2253C6.73037 24.9324 6.73037 24.4576 7.02327 24.1647L10.7907 20.3972C11.0836 20.1043 11.5585 20.1043 11.8514 20.3972Z" fill="black"/>
<path fill-rule="evenodd" clip-rule="evenodd" d="M21.0595 9.9613C20.7083 9.74176 20.6015 9.27905 20.821 8.9278L23.9606 3.90454C24.1801 3.55329 24.6428 3.44651 24.9941 3.66604C25.3453 3.88558 25.4521 4.34829 25.2326 4.69954L22.093 9.7228C21.8735 10.074 21.4108 10.1808 21.0595 9.9613Z" fill="black"/>
<path fill-rule="evenodd" clip-rule="evenodd" d="M2.25002 17.1821C2.25002 16.7679 2.5858 16.4321 3.00002 16.4321H6.00002C6.41423 16.4321 6.75002 16.7679 6.75002 17.1821C6.75002 17.5963 6.41423 17.9321 6.00002 17.9321H3.00002C2.5858 17.9321 2.25002 17.5963 2.25002 17.1821Z" fill="black"/>
<path fill-rule="evenodd" clip-rule="evenodd" d="M24.2839 14.8996C24.1529 14.5067 24.3653 14.0819 24.7582 13.9509L28.5257 12.6951C28.9186 12.5641 29.3434 12.7765 29.4744 13.1695C29.6053 13.5624 29.393 13.9872 29 14.1182L25.2326 15.374C24.8396 15.505 24.4149 15.2926 24.2839 14.8996Z" fill="black"/>
<path fill-rule="evenodd" clip-rule="evenodd" d="M18.75 21.1821C19.1642 21.1821 19.5 21.5179 19.5 21.9321V27.9321C19.5 28.3463 19.1642 28.6821 18.75 28.6821C18.3358 28.6821 18 28.3463 18 27.9321V21.9321C18 21.5179 18.3358 21.1821 18.75 21.1821Z" fill="black"/>
<path fill-rule="evenodd" clip-rule="evenodd" d="M25.0246 18.7292C25.2543 18.3846 25.72 18.2915 26.0646 18.5212L29.8321 21.0328C30.1767 21.2626 30.2698 21.7283 30.0401 22.0729C29.8103 22.4176 29.3447 22.5107 29 22.2809L25.2326 19.7693C24.8879 19.5395 24.7948 19.0739 25.0246 18.7292Z" fill="black"/>
</svg>
