<svg width="76" height="13" viewBox="0 0 76 13" fill="none" xmlns="http://www.w3.org/2000/svg">
<path d="M74.8468 5.32001C74.3188 5.09601 73.8188 4.98401 73.3468 4.98401C72.6828 4.98401 72.3508 5.24401 72.3508 5.76401C72.3508 5.99601 72.6028 6.23601 73.1068 6.48401C73.8348 6.84401 74.3028 7.10801 74.5108 7.27601C75.0068 7.68401 75.2548 8.18801 75.2548 8.78801C75.2548 9.46001 74.9868 9.96801 74.4508 10.312C74.0268 10.576 73.5188 10.708 72.9268 10.708C72.2068 10.708 71.5828 10.6 71.0548 10.384L71.1748 9.14801C71.7588 9.43601 72.3308 9.58001 72.8908 9.58001C73.2108 9.58001 73.4748 9.49601 73.6828 9.32801C73.8748 9.17601 73.9708 8.97601 73.9708 8.72801C73.9708 8.40801 73.7268 8.11201 73.2388 7.84001C72.7828 7.59201 72.4428 7.40401 72.2188 7.27601C71.9948 7.14801 71.8788 7.08001 71.8708 7.07201C71.3828 6.70401 71.1388 6.25201 71.1388 5.71601C71.1388 5.06001 71.3828 4.57201 71.8708 4.25201C72.2628 3.99601 72.7388 3.86801 73.2988 3.86801C73.9228 3.86801 74.4828 3.97601 74.9788 4.19201L74.8468 5.32001Z" fill="#565656"/>
<path d="M66.8374 4.9C66.2934 4.9 65.8894 5.144 65.6254 5.632C65.4014 6.032 65.2894 6.576 65.2894 7.264C65.2894 8.792 65.8054 9.556 66.8374 9.556C67.3334 9.556 67.7254 9.308 68.0134 8.812C68.2454 8.388 68.3614 7.86 68.3614 7.228C68.3614 6.596 68.2454 6.068 68.0134 5.644C67.7334 5.148 67.3414 4.9 66.8374 4.9ZM69.5734 10.576H68.3614V9.976C67.9614 10.472 67.4134 10.72 66.7174 10.72C65.8454 10.72 65.1694 10.396 64.6894 9.748C64.2414 9.116 64.0174 8.288 64.0174 7.264C64.0174 6.208 64.2254 5.376 64.6414 4.768C65.0974 4.088 65.7894 3.748 66.7174 3.748C67.3574 3.748 67.9054 4.012 68.3614 4.54V0.940002H69.5734V10.576Z" fill="#565656"/>
<path d="M63.0541 5.20001C62.9501 5.18401 62.8541 5.17201 62.7661 5.16401C62.6781 5.14801 62.5901 5.14001 62.5021 5.14001C62.0381 5.14001 61.6941 5.36801 61.4701 5.82401C61.2621 6.22401 61.1581 6.72001 61.1581 7.31201V10.564H59.8741V5.62001C59.8741 5.31601 59.8661 5.03201 59.8501 4.76801C59.8421 4.49601 59.8301 4.24401 59.8141 4.01201H61.1101V4.81601C61.4781 4.18401 61.9461 3.86801 62.5141 3.86801C62.6901 3.86801 62.8701 3.89201 63.0541 3.94001V5.20001Z" fill="#565656"/>
<path d="M56.863 10.576V9.94001C56.471 10.452 55.907 10.708 55.171 10.708C54.371 10.708 53.779 10.484 53.395 10.036C53.123 9.70801 52.987 9.30801 52.987 8.83601C52.987 7.20401 54.187 6.38801 56.587 6.38801H56.767V6.17201C56.767 5.38801 56.403 4.99601 55.675 4.99601C55.019 4.99601 54.371 5.16801 53.731 5.51201V4.33601C54.339 4.02401 55.011 3.86801 55.747 3.86801C56.515 3.86801 57.075 4.04801 57.427 4.40801C57.803 4.80001 57.991 5.40801 57.991 6.23201V9.02801C57.991 9.76401 58.015 10.28 58.063 10.576H56.863ZM56.767 7.50401H56.515C55.891 7.50401 55.411 7.56001 55.075 7.67201C54.539 7.84801 54.271 8.19601 54.271 8.71601C54.271 9.29201 54.603 9.58001 55.267 9.58001C56.267 9.58001 56.767 8.97201 56.767 7.75601V7.50401Z" fill="#565656"/>
<path d="M52.2022 4.02399L50.0302 10.564H48.7342L47.2462 5.82399L45.7102 10.564H44.4022L42.2782 4.02399H43.6462L45.0982 8.72799L46.6222 4.02399H47.9302L49.3822 8.72799L50.8942 4.02399H52.2022Z" fill="#565656"/>
<path d="M41.5352 7.74401H37.4911C37.5151 8.32001 37.6712 8.76801 37.9592 9.08801C38.2552 9.43201 38.6632 9.60401 39.1832 9.60401C39.9032 9.60401 40.5392 9.44801 41.0912 9.13601V10.348C40.4512 10.588 39.8031 10.708 39.1472 10.708C38.1151 10.708 37.3472 10.38 36.8432 9.72401C36.4032 9.14001 36.1832 8.32401 36.1832 7.27601C36.1832 6.26801 36.4271 5.44801 36.9151 4.81601C37.4031 4.18401 38.0592 3.86801 38.8832 3.86801C39.8032 3.86801 40.4912 4.19601 40.9472 4.85201C41.3392 5.41201 41.5352 6.15201 41.5352 7.07201V7.74401ZM40.2272 6.60401C40.2272 6.15601 40.1112 5.78001 39.8792 5.47601C39.6392 5.15601 39.3232 4.99601 38.9312 4.99601C38.5312 4.99601 38.1911 5.16001 37.9111 5.48801C37.6311 5.81601 37.4911 6.18801 37.4911 6.60401H40.2272Z" fill="#565656"/>
<path d="M35.3158 5.20001C35.2118 5.18401 35.1158 5.17201 35.0278 5.16401C34.9398 5.14801 34.8518 5.14001 34.7638 5.14001C34.2998 5.14001 33.9558 5.36801 33.7318 5.82401C33.5238 6.22401 33.4198 6.72001 33.4198 7.31201V10.564H32.1358V5.62001C32.1358 5.31601 32.1278 5.03201 32.1118 4.76801C32.1038 4.49601 32.0918 4.24401 32.0758 4.01201H33.3718V4.81601C33.7398 4.18401 34.2078 3.86801 34.7758 3.86801C34.9518 3.86801 35.1318 3.89201 35.3158 3.94001V5.20001Z" fill="black"/>
<path d="M30.9804 10.516C30.6764 10.644 30.3324 10.708 29.9484 10.708C29.1884 10.708 28.6964 10.504 28.4724 10.096C28.3044 9.82401 28.2204 9.30001 28.2204 8.52401V5.12801H27.1884V3.94001H28.2204V2.51201L29.5164 2.09201V3.94001H30.7884V5.12801H29.5164V8.86001C29.5164 9.32401 29.7284 9.55601 30.1524 9.55601C30.4324 9.55601 30.6764 9.50401 30.8844 9.40001L30.9804 10.516Z" fill="#565656"/>
<path d="M21.7951 12.28H20.5351V4.00001H21.7951L21.7591 4.73201C21.7911 4.69201 21.8311 4.64401 21.8791 4.58801C21.9271 4.52401 21.9831 4.46001 22.0471 4.39601C22.3991 4.04401 22.8751 3.86801 23.4751 3.86801C24.3551 3.86801 25.0311 4.16401 25.5031 4.75601C25.9191 5.30001 26.1271 6.06801 26.1271 7.06001C26.1271 8.06801 25.9071 8.86801 25.4671 9.46001C25.0031 10.092 24.3271 10.408 23.4391 10.408C22.7271 10.408 22.1791 10.148 21.7951 9.62801V12.28ZM23.3311 5.03201C22.8351 5.03201 22.4511 5.24001 22.1791 5.65601C21.9231 6.03201 21.7951 6.52401 21.7951 7.13201C21.7951 7.72401 21.9191 8.21601 22.1671 8.60801C22.4471 9.03201 22.8271 9.24401 23.3071 9.24401C24.3471 9.24401 24.8671 8.52801 24.8671 7.09601C24.8671 5.72001 24.3551 5.03201 23.3311 5.03201Z" fill="#565656"/>
<path d="M17.488 10.576V9.94001C17.096 10.452 16.532 10.708 15.796 10.708C14.996 10.708 14.404 10.484 14.02 10.036C13.748 9.70801 13.612 9.30801 13.612 8.83601C13.612 7.20401 14.812 6.38801 17.212 6.38801H17.392V6.17201C17.392 5.38801 17.028 4.99601 16.3 4.99601C15.644 4.99601 14.996 5.16801 14.356 5.51201V4.33601C14.964 4.02401 15.636 3.86801 16.372 3.86801C17.14 3.86801 17.7 4.04801 18.052 4.40801C18.428 4.80001 18.616 5.40801 18.616 6.23201V9.02801C18.616 9.76401 18.64 10.28 18.688 10.576H17.488ZM17.392 7.50401H17.14C16.516 7.50401 16.036 7.56001 15.7 7.67201C15.164 7.84801 14.896 8.19601 14.896 8.71601C14.896 9.29201 15.228 9.58001 15.892 9.58001C16.892 9.58001 17.392 8.97201 17.392 7.75601V7.50401Z" fill="black"/>
<path d="M11 6C11 8.76142 8.76142 11 6 11C3.23858 11 1 8.76142 1 6C1 3.23858 3.23858 1 6 1C8.76142 1 11 3.23858 11 6Z" fill="#D9D9D9"/>
<path d="M8 9C8 9.55228 7.55228 10 7 10C6.44772 10 6 9.55228 6 9C6 8.44772 6.44772 8 7 8C7.55228 8 8 8.44772 8 9Z" fill="black"/>
<mask id="mask0_12_51" style="mask-type:alpha" maskUnits="userSpaceOnUse" x="0" y="0" width="12" height="12">
<path fill-rule="evenodd" clip-rule="evenodd" d="M6 11C8.76142 11 11 8.76142 11 6C11 3.23858 8.76142 1 6 1C3.23858 1 1 3.23858 1 6C1 8.76142 3.23858 11 6 11ZM6 12C9.31371 12 12 9.31371 12 6C12 2.68629 9.31371 0 6 0C2.68629 0 0 2.68629 0 6C0 9.31371 2.68629 12 6 12Z" fill="black"/>
</mask>
<g mask="url(#mask0_12_51)">
<path d="M0.5 -0.5L9 -1L8 3H3L0.5 -0.5Z" fill="#1E1E1E"/>
</g>
</svg>
