<svg width="92" height="92" viewBox="0 0 92 92" fill="none" xmlns="http://www.w3.org/2000/svg">
<rect width="92" height="92" rx="13" fill="white"/>
<path d="M68 48.4C68 60.5502 58.1503 70.4 46 70.4C33.8497 70.4 24 60.5502 24 48.4C24 36.2497 33.8497 26.4 46 26.4C58.1503 26.4 68 36.2497 68 48.4Z" fill="#D9D9D9"/>
<path d="M54.8 61.6C54.8 64.0301 52.8301 66 50.4 66C47.9699 66 46 64.0301 46 61.6C46 59.17 47.9699 57.2 50.4 57.2C52.8301 57.2 54.8 59.17 54.8 61.6Z" fill="black"/>
<path fill-rule="evenodd" clip-rule="evenodd" d="M57.4488 24.6049C53.9855 22.9355 50.102 22 46 22C39.1716 22 32.9488 24.5924 28.2619 28.8467L30.8404 32.4567C34.7864 28.7035 40.1242 26.4 46 26.4C49.7433 26.4 53.2682 27.3349 56.354 28.9839L57.4488 24.6049Z" fill="#1E1E1E"/>
</svg>
